<?xml version="1.0" encoding="UTF-8" standalone="no"?>
<svg
   xmlns:dc="http://purl.org/dc/elements/1.1/"
   xmlns:cc="http://creativecommons.org/ns#"
   xmlns:rdf="http://www.w3.org/1999/02/22-rdf-syntax-ns#"
   xmlns:svg="http://www.w3.org/2000/svg"
   xmlns="http://www.w3.org/2000/svg"
   xmlns:sodipodi="http://sodipodi.sourceforge.net/DTD/sodipodi-0.dtd"
   xmlns:inkscape="http://www.inkscape.org/namespaces/inkscape"
   version="1.1"
   x="0px"
   y="0px"
   viewBox="0 0 24 30"
   style="enable-background:new 0 0 24 24;"
   xml:space="preserve"
   id="svg40"
   sodipodi:docname="dice.svg"
   inkscape:version="1.0.1 (3bc2e813f5, 2020-09-07)"><metadata
     id="metadata46"><rdf:RDF><cc:Work
         rdf:about=""><dc:format>image/svg+xml</dc:format><dc:type
           rdf:resource="http://purl.org/dc/dcmitype/StillImage" /></cc:Work></rdf:RDF></metadata><defs
     id="defs44" /><sodipodi:namedview
     pagecolor="#ffffff"
     bordercolor="#666666"
     borderopacity="1"
     objecttolerance="10"
     gridtolerance="10"
     guidetolerance="10"
     inkscape:pageopacity="0"
     inkscape:pageshadow="2"
     inkscape:window-width="1296"
     inkscape:window-height="890"
     id="namedview42"
     showgrid="false"
     inkscape:zoom="22.666667"
     inkscape:cx="12"
     inkscape:cy="19.65041"
     inkscape:window-x="-6"
     inkscape:window-y="-6"
     inkscape:window-maximized="1"
     inkscape:current-layer="svg40" /><g
     id="g34"
     style="fill:#d1d5db;fill-opacity:1"><path
       d="M23.499,16.715l-1.175-6.151c-0.026-0.105-0.063-0.25-0.223-0.431c-0.111-0.093-0.251-0.148-0.411-0.167l-0.984-0.161   c-2.141-0.352-4.277-0.701-6.419-1.045l0.002-5.386c0-0.101,0-0.288-0.119-0.458c-0.118-0.17-0.294-0.235-0.39-0.271L7.919,0.495   C7.768,0.44,7.598,0.378,7.401,0.363L7.37,0.36L7.34,0.363C7.143,0.378,6.973,0.44,6.822,0.495L0.959,2.645   C0.865,2.68,0.69,2.743,0.569,2.915c-0.12,0.174-0.119,0.36-0.118,0.458l0.003,7.766c0,0.102,0,0.271,0.093,0.438   c0.128,0.226,0.353,0.312,0.472,0.356c1.369,0.527,2.732,1.067,4.09,1.622l0.369,0.158c0.98,0.426,1.567,0.661,1.937,0.687   c0.324-0.033,1.028-0.33,1.845-0.686l0.371-0.159c0.375-0.153,0.754-0.297,1.13-0.448c-0.032,0.051-0.066,0.102-0.104,0.162   c-0.478,0.739-0.88,1.378-0.979,1.789c-0.017,0.311,0.147,0.99,0.363,1.846c0.05,0.2,0.093,0.368,0.117,0.476   c0.33,1.428,0.639,2.865,0.936,4.279c0.02,0.112,0.066,0.373,0.278,0.539c0.122,0.101,0.256,0.131,0.42,0.167l7.677,1.263   c0.043,0.005,0.097,0.012,0.157,0.012c0.086,0,0.188-0.014,0.3-0.062c0.189-0.094,0.277-0.248,0.33-0.342l0.847-1.504   c0.738-1.312,1.478-2.626,2.22-3.931c0.082-0.142,0.173-0.309,0.223-0.563C23.56,17.034,23.528,16.847,23.499,16.715z M7.097,1.247   C7.196,1.211,7.29,1.176,7.37,1.164C7.451,1.176,7.545,1.21,7.644,1.247l5.224,1.899L7.37,5.637L1.893,3.155L7.097,1.247z    M5.412,12.815c-1.363-0.557-2.731-1.099-4.107-1.629c-0.019-0.007-0.075-0.028-0.052-0.048L1.236,3.736l5.735,2.599v7.133   c-0.393-0.148-0.92-0.377-1.173-0.487L5.412,12.815z M9.328,12.815l-0.387,0.166c-0.279,0.122-0.808,0.351-1.171,0.496V6.334   l5.722-2.593l0.035,7.405l-0.093,0.041C12.06,11.717,10.691,12.259,9.328,12.815z M13.72,11.935   c0.121-0.046,0.345-0.131,0.476-0.359c0.092-0.165,0.092-0.335,0.092-0.437l0.001-1.569c2.099,0.338,4.192,0.68,6.29,1.025   l0.622,0.091l-3.487,5.233l-7.044-1.153c0.203-0.352,0.5-0.815,0.66-1.062c0.102-0.157,0.187-0.289,0.24-0.376l0.432-0.711   C12.574,12.39,13.145,12.156,13.72,11.935z M11.878,21.508c-0.301-1.433-0.612-2.874-0.941-4.304   c-0.023-0.107-0.068-0.285-0.121-0.496c-0.073-0.289-0.194-0.773-0.27-1.153l7.038,1.152l1.635,6.071l-7.316-1.17L11.878,21.508z    M22.629,17.402c-0.745,1.31-1.485,2.625-2.224,3.938l-0.5,0.909l-1.568-5.823l3.337-5.008l1.042,5.457   c0.028,0.131,0.038,0.226,0.04,0.253C22.737,17.212,22.681,17.313,22.629,17.402z"
       id="path2"
       style="fill:#d1d5db;fill-opacity:1" /><path
       d="M2.546,5.05c-0.403,0-0.729,0.326-0.729,0.729s0.326,0.729,0.729,0.729s0.729-0.326,0.729-0.729S2.949,5.05,2.546,5.05z"
       id="path4"
       style="fill:#d1d5db;fill-opacity:1" /><path
       d="M5.806,10.852c-0.403,0-0.729,0.326-0.729,0.729s0.326,0.729,0.729,0.729s0.729-0.326,0.729-0.729   S6.209,10.852,5.806,10.852z"
       id="path6"
       style="fill:#d1d5db;fill-opacity:1" /><path
       d="M3.994,7.851c-0.403,0-0.729,0.326-0.729,0.729s0.326,0.729,0.729,0.729S4.723,8.983,4.723,8.58S4.397,7.851,3.994,7.851z"
       id="path8"
       style="fill:#d1d5db;fill-opacity:1" /><path
       d="M8.963,6.508c-0.403,0-0.729,0.326-0.729,0.729S8.56,7.967,8.963,7.967S9.692,7.64,9.692,7.237S9.365,6.508,8.963,6.508z"
       id="path10"
       style="fill:#d1d5db;fill-opacity:1" /><path
       d="M12.338,5.05c-0.403,0-0.729,0.326-0.729,0.729s0.326,0.729,0.729,0.729s0.729-0.326,0.729-0.729S12.74,5.05,12.338,5.05z"
       id="path12"
       style="fill:#d1d5db;fill-opacity:1" /><path
       d="M12.338,9.55c-0.403,0-0.729,0.326-0.729,0.729s0.326,0.729,0.729,0.729s0.729-0.326,0.729-0.729S12.74,9.55,12.338,9.55z"
       id="path14"
       style="fill:#d1d5db;fill-opacity:1" /><path
       d="M8.963,10.852c-0.403,0-0.729,0.326-0.729,0.729S8.56,12.31,8.963,12.31s0.729-0.326,0.729-0.729   S9.365,10.852,8.963,10.852z"
       id="path16"
       style="fill:#d1d5db;fill-opacity:1" /><path
       d="M7.371,3.872c0.403,0,0.729-0.326,0.729-0.729S7.773,2.414,7.371,2.414S6.641,2.741,6.641,3.143S6.968,3.872,7.371,3.872z"
       id="path18"
       style="fill:#d1d5db;fill-opacity:1" /><circle
       cx="15.579"
       cy="12.81"
       r="0.729"
       id="circle20"
       style="fill:#d1d5db;fill-opacity:1" /><path
       d="M12.695,16.94c0-0.403-0.326-0.729-0.729-0.729s-0.729,0.326-0.729,0.729s0.326,0.729,0.729,0.729   S12.695,17.342,12.695,16.94z"
       id="path22"
       style="fill:#d1d5db;fill-opacity:1" /><path
       d="M12.854,19.88c-0.401,0.039-0.694,0.395-0.655,0.796c0.039,0.401,0.395,0.694,0.796,0.655   c0.401-0.039,0.694-0.395,0.655-0.796S13.255,19.841,12.854,19.88z"
       id="path24"
       style="fill:#d1d5db;fill-opacity:1" /><path
       d="M17.457,17.785c0-0.403-0.326-0.729-0.729-0.729s-0.729,0.326-0.729,0.729s0.326,0.729,0.729,0.729   S17.457,18.188,17.457,17.785z"
       id="path26"
       style="fill:#d1d5db;fill-opacity:1" /><path
       d="M20.918,14.543c-0.403,0-0.729,0.326-0.729,0.729c0,0.403,0.326,0.729,0.729,0.729s0.729-0.326,0.729-0.729   C21.647,14.869,21.321,14.543,20.918,14.543z"
       id="path28"
       style="fill:#d1d5db;fill-opacity:1" /><path
       d="M20.496,17.627c-0.403,0-0.729,0.326-0.729,0.729s0.326,0.729,0.729,0.729s0.729-0.326,0.729-0.729   S20.899,17.627,20.496,17.627z"
       id="path30"
       style="fill:#d1d5db;fill-opacity:1" /><path
       d="M17.514,20.609c-0.401,0.039-0.694,0.395-0.655,0.796s0.395,0.694,0.796,0.655s0.694-0.395,0.655-0.796   C18.271,20.864,17.915,20.57,17.514,20.609z"
       id="path32"
       style="fill:#d1d5db;fill-opacity:1" /></g><text
     x="0"
     y="39"
     fill="#000000"
     font-size="5px"
     font-weight="bold"
     font-family="'Helvetica Neue', Helvetica, Arial-Unicode, Arial, Sans-serif"
     id="text36">Created by myiconfinder</text><text
     x="0"
     y="44"
     fill="#000000"
     font-size="5px"
     font-weight="bold"
     font-family="'Helvetica Neue', Helvetica, Arial-Unicode, Arial, Sans-serif"
     id="text38">from the Noun Project</text></svg>
