<?xml version="1.0" encoding="UTF-8" standalone="no"?>
<svg
   xmlns:dc="http://purl.org/dc/elements/1.1/"
   xmlns:cc="http://creativecommons.org/ns#"
   xmlns:rdf="http://www.w3.org/1999/02/22-rdf-syntax-ns#"
   xmlns:svg="http://www.w3.org/2000/svg"
   xmlns="http://www.w3.org/2000/svg"
   xmlns:sodipodi="http://sodipodi.sourceforge.net/DTD/sodipodi-0.dtd"
   xmlns:inkscape="http://www.inkscape.org/namespaces/inkscape"
   xml:space="preserve"
   version="1.1"
   style="shape-rendering:geometricPrecision;text-rendering:geometricPrecision;image-rendering:optimizeQuality;"
   viewBox="0 0 60000 75000"
   x="0px"
   y="0px"
   fill-rule="evenodd"
   clip-rule="evenodd"
   id="svg14"
   sodipodi:docname="tarot.svg"
   inkscape:version="1.0.1 (3bc2e813f5, 2020-09-07)"><metadata
     id="metadata18"><rdf:RDF><cc:Work
         rdf:about=""><dc:format>image/svg+xml</dc:format><dc:type
           rdf:resource="http://purl.org/dc/dcmitype/StillImage" /></cc:Work></rdf:RDF></metadata><sodipodi:namedview
     pagecolor="#ffffff"
     bordercolor="#666666"
     borderopacity="1"
     objecttolerance="10"
     gridtolerance="10"
     guidetolerance="10"
     inkscape:pageopacity="0"
     inkscape:pageshadow="2"
     inkscape:window-width="1296"
     inkscape:window-height="890"
     id="namedview16"
     showgrid="false"
     inkscape:zoom="0.01"
     inkscape:cx="30000"
     inkscape:cy="37500"
     inkscape:window-x="-6"
     inkscape:window-y="-6"
     inkscape:window-maximized="1"
     inkscape:current-layer="svg14" /><defs
     id="defs4"><style
       type="text/css"
       id="style2">
   
    .fil0 {fill:black;fill-rule:nonzero}
   
  </style></defs><g
     id="g8"
     style="fill:#d1d5db;fill-opacity:1"><path
       class="fil0"
       d="M7140 25211c-8,-21 -17,-41 -26,-63l15 0c525,0 1034,44 1517,124 2,25 3,47 6,69 2,44 3,100 3,168 0,876 -399,1673 -1044,2250 -659,589 -1573,955 -2587,955 -733,0 -1412,-189 -1980,-515 -454,-261 -838,-610 -1122,-1018 267,-352 630,-673 1067,-951 80,415 301,784 617,1068 389,348 921,564 1505,564 584,0 1116,-215 1505,-564 402,-360 651,-859 651,-1414 0,-234 -45,-461 -129,-671l2 -1zm23370 27377l405 660 760 -181c207,-49 414,79 463,286 14,63 13,125 -2,184l-180 753 664 409c181,112 238,349 126,530 -34,55 -80,99 -132,130l-660 405 181 760c49,207 -79,414 -286,463 -63,14 -125,13 -184,-2l-753 -180 -409 664c-112,181 -349,238 -530,126 -55,-34 -99,-80 -130,-132l-405 -660 -760 181c-207,49 -414,-79 -463,-286 -14,-63 -13,-125 2,-184l180 -753 -664 -409c-181,-112 -238,-349 -126,-530 34,-55 80,-99 132,-130l660 -405 -181 -760c-49,-207 79,-414 286,-463 63,-14 125,-13 184,2l753 180 409 -664c112,-181 349,-238 530,-126 55,34 99,80 130,132zm-104 1301l-227 -369 -222 362c-83,143 -252,220 -421,180l-422 -101 98 413c41,160 -23,334 -171,426l-369 227 362 222c142,83 220,252 180,421l-101 422 413 -98c160,-41 334,23 426,171l227 369 222 -362c83,-142 252,-220 421,-180l422 101 -98 -413c-41,-160 23,-334 171,-426l369 -227 -362 -222c-142,-83 -220,-252 -180,-421l101 -422 -413 98c-160,41 -334,-23 -426,-171zm-11529 -7727c-105,-2 -203,66 -235,171 -38,127 35,261 162,299 675,201 1268,697 1692,1372 424,674 677,1525 677,2443 0,915 -277,1749 -725,2408 -466,685 -1113,1177 -1820,1364 -128,34 -205,165 -171,294 23,87 90,149 169,170 134,39 271,69 409,90 140,20 280,31 422,31 988,0 1879,-495 2522,-1296 631,-787 1021,-1869 1021,-3062 0,-1193 -390,-2275 -1021,-3062 -642,-801 -1534,-1296 -2522,-1296 -99,0 -213,12 -324,28 -89,13 -177,29 -255,44l0 1zm2025 1587c-294,-468 -661,-861 -1081,-1151 690,104 1312,501 1783,1088 564,704 914,1679 914,2760 0,1081 -350,2057 -914,2760 -521,649 -1224,1065 -2002,1111 478,-287 903,-696 1242,-1193 500,-735 810,-1664 810,-2678 0,-1009 -282,-1950 -752,-2698zm20684 -1587c105,-2 203,66 235,171 38,127 -35,261 -162,299 -675,201 -1268,697 -1692,1372 -424,674 -677,1525 -677,2443 0,915 277,1749 725,2408 466,685 1113,1177 1820,1364 128,34 205,165 171,294 -23,87 -90,149 -169,170 -134,39 -271,69 -409,90 -140,20 -280,31 -422,31 -988,0 -1879,-495 -2522,-1296 -631,-787 -1021,-1869 -1021,-3062 0,-1193 390,-2275 1021,-3062 642,-801 1534,-1296 2522,-1296 99,0 213,12 324,28 89,13 177,29 255,44l0 1zm-2025 1587c294,-468 661,-861 1081,-1151 -690,104 -1312,501 -1783,1088 -564,704 -914,1679 -914,2760 0,1081 349,2057 914,2760 521,649 1224,1065 2002,1111 -478,-287 -903,-696 -1242,-1193 -500,-735 -810,-1664 -810,-2678 0,-1009 282,-1950 752,-2698zm13299 -22537c8,-21 17,-41 26,-63l-15 0c-525,0 -1034,44 -1517,124 -2,25 -3,47 -6,69 -2,44 -3,100 -3,168 0,876 399,1673 1044,2250 659,589 1573,955 2587,955 733,0 1412,-189 1980,-515 454,-261 838,-610 1122,-1018 -267,-352 -630,-673 -1067,-951 -80,415 -301,784 -617,1068 -389,348 -921,564 -1505,564 -584,0 -1116,-215 -1505,-564 -402,-360 -651,-859 -651,-1414 0,-234 45,-461 129,-671l-2 -1zm-2411 298l0 -34c-639,183 -1213,435 -1700,742 -986,622 -1596,1462 -1596,2372 0,910 610,1750 1596,2372 1048,661 2504,1069 4122,1069 1618,0 3074,-409 4122,-1069 986,-622 1596,-1462 1596,-2372 0,-179 -24,-356 -69,-530 -314,357 -692,666 -1119,912 -703,404 -1535,639 -2424,639 -1239,0 -2364,-453 -3182,-1185 -831,-744 -1346,-1775 -1346,-2915zm2422 -1257c1787,0 3414,462 4598,1209 113,72 222,146 327,222 -245,-416 -542,-797 -882,-1136 -1034,-1035 -2464,-1675 -4044,-1675 -1579,0 -3008,640 -4044,1675 -340,340 -636,720 -882,1136 105,-76 214,-150 327,-222 1184,-747 2811,-1209 4598,-1209zm4925 7245c-105,76 -214,150 -327,222 -1184,747 -2811,1209 -4598,1209 -1787,0 -3414,-462 -4598,-1209 -113,-72 -222,-146 -327,-222 245,416 542,797 882,1136 1034,1035 2464,1675 4044,1675 1579,0 3008,-640 4044,-1675 340,-339 636,-720 882,-1136zm-4925 -9522c1826,0 3480,741 4677,1937 1197,1197 1937,2850 1937,4677 0,1826 -741,3480 -1937,4677 -1197,1197 -2850,1937 -4677,1937 -1826,0 -3480,-741 -4677,-1937 -1197,-1197 -1937,-2850 -1937,-4677 0,-1826 741,-3480 1937,-4677 1197,-1197 2850,-1937 4677,-1937zm-41838 -9402l929 -976 976 929 -929 976 -976 -929zm-9718 -9249l930 886 929 -976 -930 -886 -929 976zm1907 1815l929 -976 976 929 -929 976 -976 -929zm1953 1858l929 -976 976 929 -929 976 -976 -929zm1953 1858l929 -976 976 929 -929 976 -976 -929zm1953 1858l929 -976 976 929 -929 976 -976 -929zm-6789 42875l929 976 -976 929 -929 -976 976 -929zm11717 -11151l929 976 -976 929 -929 -976 976 -929zm-1953 1858l929 976 -976 929 -929 -976 976 -929zm-1953 1858l929 976 -976 929 -929 -976 976 -929zm-1953 1858l929 976 -976 929 -929 -976 976 -929zm-1953 1858l929 976 -976 929 -929 -976 976 -929zm-1953 1858l929 976 -976 929 -929 -976 976 -929zm27502 -44404c388,-434 966,-804 1678,-1079 895,-344 2015,-551 3222,-551 1434,0 2744,291 3703,761 1074,527 1738,1294 1738,2180 0,885 -664,1653 -1738,2180 -959,470 -2269,761 -3703,761l0 -1c-3389,84 -4479,-1624 -5427,-3109 -577,-904 -1088,-1705 -2157,-1700l-4 -1065c1378,-6 2067,710 2689,1624l-1 0zm2063 -84c-714,275 -1231,640 -1441,1041 755,1141 1751,2294 4265,2228l13 -3c1275,0 2419,-248 3234,-648 702,-344 1136,-779 1136,-1222 0,-443 -434,-879 -1136,-1222 -817,-400 -1959,-648 -3234,-648 -1079,0 -2064,177 -2837,476l0 -1zm-3815 2710c-384,431 -956,797 -1659,1071 -898,350 -2024,559 -3241,559 -1434,0 -2744,-291 -3703,-761 -1074,-527 -1738,-1294 -1738,-2180 0,-885 664,-1653 1738,-2180 959,-470 2269,-761 3703,-761l0 1c3389,-84 4479,1624 5427,3109 578,904 1088,1705 2157,1700l4 1065c-1378,6 -2067,-710 -2689,-1624l1 0zm-2043 76c704,-275 1215,-636 1422,-1033 -755,-1141 -1751,-2294 -4265,-2228l-13 3c-1275,0 -2419,248 -3234,648 -702,344 -1136,779 -1136,1222 0,443 434,879 1136,1222 817,400 1959,648 3234,648 1088,0 2080,-181 2857,-484l-1 1zm3149 14518l0 0c47,-57 89,-108 0,0zm-8828 15381c-84,-86 -170,-170 -259,-251 -329,202 -693,347 -1074,460 -439,131 -714,113 -969,95 -220,-15 -412,-27 -1001,412 -392,292 -693,433 -1064,476 -336,39 -656,-15 -1135,-110 -778,-153 -1480,-614 -1812,-1353 -182,-408 -242,-880 -140,-1397 73,-371 231,-767 491,-1179 194,-307 609,-882 1058,-1272 384,-334 819,-559 1264,-505 278,34 562,139 853,247 307,115 628,233 757,194 1,0 1,0 0,0 15,-8 26,-87 32,-192 18,-226 -29,-488 -95,-698 -27,-89 -57,-163 -82,-215 -260,-502 -660,-957 -1051,-1400 -1290,-1460 -2480,-2808 -352,-5595 252,-584 260,-1251 100,-1896 -192,-765 -618,-1485 -1163,-1999 -207,-195 -210,-197 -218,-205 -337,-313 -677,-625 -933,-969 -662,-883 -814,-1800 544,-2817 37,-27 50,-76 48,-134 -3,-163 -74,-386 -161,-620 -304,-811 -764,-1531 -1208,-2227 -1104,-1728 -2126,-3326 -1116,-6027 90,-245 315,-400 560,-418l0 -2c1345,-94 2251,1393 3089,2767 399,652 778,1276 1103,1561 1699,1490 3118,2115 4435,2696 973,429 1895,835 2850,1523 1268,914 1275,1016 2456,2318 702,774 1374,1582 2089,2444 750,-904 1454,-1749 2194,-2557 726,-793 1179,-1297 2059,-1981 1058,-822 2067,-1267 3137,-1738 1319,-581 2737,-1206 4435,-2696 326,-286 706,-909 1103,-1561 838,-1374 1744,-2861 3089,-2767 278,18 504,212 576,463 983,2674 -34,4264 -1132,5982 -446,696 -906,1416 -1208,2227 -87,236 -160,457 -161,620 -2,60 11,107 48,134 1358,1017 1206,1934 544,2817 -257,344 -596,656 -933,969 -8,8 -11,10 -218,205 -544,512 -970,1232 -1163,1999 -161,644 -153,1311 100,1896 2128,2787 938,4135 -352,5595 -391,442 -793,896 -1051,1400 -26,52 -55,124 -82,215 -66,210 -111,471 -95,698 8,105 19,184 32,192 0,0 -2,-2 0,0 129,40 450,-79 757,-194 291,-108 573,-213 853,-247 446,-55 880,171 1264,505 449,391 865,966 1058,1272 260,412 418,809 491,1179 102,517 42,988 -140,1397 -329,739 -1035,1200 -1812,1353 -480,95 -801,149 -1135,110 -373,-44 -673,-184 -1064,-476 -589,-439 -780,-426 -1001,-412 -255,18 -531,36 -969,-95 -481,-144 -933,-336 -1326,-633 -310,262 -596,560 -867,880l3 -3c-319,391 -596,763 -896,1179 -66,94 -134,187 -200,281 -1410,1984 -2819,3969 -6153,4001l-19 0c-3328,-36 -4736,-2018 -6144,-4001 -206,-291 -1251,-1645 -1519,-1919zm106 -12086c-1009,-518 -1857,-1345 -2344,-2154 -94,-141 -17,-334 152,-370 1923,-402 3442,-316 4640,82 1447,483 2415,1416 3047,2501 37,58 48,131 27,202 -40,128 -176,199 -304,158 -407,-128 -796,-158 -1187,-136 -397,23 -804,100 -1227,184 -975,192 -1950,-27 -2806,-468l2 0zm7581 -781c0,-134 108,-242 242,-242 134,0 242,108 242,242l0 1539c0,134 -108,242 -242,242 -134,0 -242,-108 -242,-242l0 -1539zm10408 -1372c-488,809 -1335,1636 -2344,2154 -856,439 -1831,660 -2806,468 -421,-84 -830,-161 -1227,-184 -389,-23 -780,8 -1187,136 -128,40 -263,-31 -304,-158 -23,-71 -10,-144 27,-202 631,-1085 1600,-2020 3047,-2501 1196,-399 2717,-484 4640,-82 169,35 246,229 152,370l2 0zm-14694 12011c-184,-124 -233,-375 -107,-559 124,-184 375,-233 559,-107 528,358 1219,258 1860,165 778,-113 1500,-218 2038,276 538,-494 1259,-389 2038,-276 639,94 1330,194 1860,-165 184,-124 434,-76 559,107 124,184 76,434 -107,559 -790,536 -1639,412 -2424,297 -675,-98 -1287,-187 -1568,331 -36,66 -90,124 -163,163 -195,107 -441,34 -547,-163 -281,-518 -894,-429 -1569,-331 -786,115 -1636,237 -2424,-297l-5 0zm1671 1875c-163,-152 -173,-407 -21,-570 152,-163 407,-173 570,-21 539,504 1313,788 2139,785 778,-3 1602,-262 2327,-828 174,-137 428,-105 565,69 137,174 105,428 -69,565 -873,683 -1873,993 -2817,998 -1032,5 -2004,-357 -2692,-998l-2 0zm4755 -6037c-90,-203 0,-441 203,-531 203,-90 441,0 531,203 446,998 42,1411 -544,1673 -149,66 -294,113 -436,160 -212,69 -417,136 -473,205 -496,612 -896,917 -1350,917 -454,0 -854,-305 -1350,-917 -57,-69 -262,-137 -473,-205 -142,-47 -287,-94 -436,-160 -586,-262 -991,-675 -544,-1673 90,-203 328,-294 531,-203 203,90 294,328 203,531 -171,383 -48,526 137,610 100,45 229,87 357,128 326,107 641,208 848,463 334,412 557,618 725,618 168,0 392,-207 725,-618 207,-255 522,-358 848,-463 128,-42 257,-84 357,-128 186,-84 308,-228 137,-610l3 0zm-9155 5246c733,688 1313,1503 1892,2319 1219,1716 2438,3433 5110,3460 2671,-27 3890,-1744 5110,-3460 656,-922 1311,-1845 2189,-2583 -149,-295 -257,-638 -320,-1037 -2,-11 -3,-23 -5,-32l-2 0c-98,-941 -281,-1485 -505,-1821 -192,-286 -446,-429 -707,-557 -938,-461 -1823,-1174 -2419,-2038 -220,-320 -504,-596 -832,-820 -639,-439 -1437,-686 -2244,-706 -802,-21 -1611,182 -2283,644 -333,228 -631,520 -880,882 -289,421 -652,811 -1059,1151 -420,354 -885,654 -1359,886 -262,128 -515,271 -707,557 -226,336 -407,880 -505,1821 -3,24 -6,47 -11,69 -84,509 -245,924 -465,1264l2 0zm8154 -14238c-103,124 -256,308 -425,510 -27,34 -57,65 -90,92 -273,228 -678,191 -906,-84 -241,-289 -370,-444 -433,-520l0 0c50,60 103,124 0,0 -1145,-1380 -2175,-2622 -3347,-3756 -1221,-1180 -2383,-1692 -3636,-2244 -1403,-618 -2910,-1282 -4763,-2908 -478,-420 -906,-1122 -1356,-1858 -502,-823 -1037,-1700 -1516,-2023 -460,1794 325,3023 1167,4338 481,752 978,1532 1329,2469 131,349 237,702 242,1054 6,455 -142,862 -563,1179 -536,402 -507,723 -287,1017 192,255 484,526 777,798 142,131 168,153 228,210 717,677 1280,1621 1531,2624 231,922 203,1900 -199,2782 -21,53 -50,105 -87,153 -1540,1988 -681,2961 250,4016 446,504 904,1022 1234,1661 61,118 119,263 170,421 107,342 181,778 150,1177 -39,520 -244,991 -730,1242 -66,34 -136,63 -207,86 -546,170 -1079,-29 -1590,-218 -210,-77 -413,-153 -560,-171 -23,-3 -128,81 -260,197 -342,299 -665,744 -815,985 -170,268 -270,517 -315,741 -48,245 -26,455 50,625 76,168 207,310 376,418 142,89 313,155 505,192 358,71 589,111 743,94 116,-13 242,-81 439,-228 970,-723 1384,-696 1858,-664 144,10 299,19 515,-45 409,-123 777,-283 1048,-534 250,-234 436,-567 517,-1058 124,-1175 384,-1907 717,-2401 366,-546 786,-788 1213,-996 740,-362 1448,-928 1918,-1610 342,-499 757,-904 1217,-1221 901,-618 1978,-893 3039,-865 1588,39 3195,757 4109,2086 226,328 507,630 822,894 339,284 714,528 1096,715 426,208 846,450 1213,996 333,496 593,1225 717,2401 82,491 266,823 517,1058 270,252 638,412 1048,534 218,65 371,55 515,45 475,-32 888,-60 1858,664 197,147 323,215 439,228 153,18 383,-23 743,-94 192,-37 363,-103 505,-192 382,-240 512,-607 426,-1043 -44,-224 -145,-471 -315,-741 -152,-241 -473,-686 -815,-985 -134,-116 -239,-200 -260,-197 -145,18 -350,94 -560,171 -510,191 -1045,388 -1590,218 -71,-23 -140,-50 -207,-86 -486,-250 -689,-722 -730,-1242 -31,-399 44,-835 150,-1177 48,-158 108,-304 170,-421 329,-639 788,-1158 1234,-1661 932,-1054 1791,-2026 250,-4016 -29,-37 -54,-78 -74,-121 -415,-890 -446,-1881 -213,-2814 252,-1003 814,-1947 1531,-2624 60,-57 87,-79 228,-210 292,-271 584,-541 777,-798 220,-294 250,-615 -287,-1017 -421,-316 -570,-723 -564,-1179 5,-352 111,-706 242,-1054 350,-938 848,-1716 1329,-2469 841,-1318 1626,-2545 1167,-4338 -481,323 -1014,1200 -1516,2023 -449,738 -878,1440 -1356,1858 -1854,1626 -3362,2290 -4763,2908 -1253,552 -2415,1064 -3636,2244 -1174,1133 -2202,2375 -3347,3756l3 2zm-1854 0c-90,-108 -47,-55 0,0l0 0zm27968 30020l929 -976 976 929 -929 976 -976 -929zm-11717 -11151l929 -976 976 929 -929 976 -976 -929zm1953 1858l929 -976 976 929 -929 976 -976 -929zm1953 1858l929 -976 976 929 -929 976 -976 -929zm1953 1858l929 -976 976 929 -929 976 -976 -929zm1953 1858l929 -976 976 929 -929 976 -976 -929zm1953 1858l929 -976 976 929 -929 976 -976 -929zm-7079 -41111l929 976 -976 929 -929 -976 976 -929zm9718 -9249l-930 886 929 976 930 -886 -929 -976zm-1907 1815l929 976 -976 929 -929 -976 976 -929zm-1953 1858l929 976 -976 929 -929 -976 976 -929zm-1953 1858l929 976 -976 929 -929 -976 976 -929zm-1953 1858l929 976 -976 929 -929 -976 976 -929zm-40581 15770l0 -34c639,183 1213,435 1700,742 986,622 1596,1462 1596,2372 0,910 -610,1750 -1596,2372 -1048,661 -2504,1069 -4122,1069 -1618,0 -3074,-409 -4122,-1069 -986,-622 -1596,-1462 -1596,-2372 0,-179 24,-356 69,-530 314,357 692,666 1119,912 703,404 1535,639 2424,639 1239,0 2364,-453 3182,-1185 831,-744 1346,-1775 1346,-2915zm-2422 -1257c-1787,0 -3414,462 -4598,1209 -113,72 -222,146 -327,222 245,-416 542,-797 882,-1136 1034,-1035 2464,-1675 4044,-1675 1579,0 3008,640 4044,1675 340,340 636,720 882,1136 -105,-76 -214,-150 -327,-222 -1184,-747 -2811,-1209 -4598,-1209zm-4925 7245c105,76 214,150 327,222 1184,747 2811,1209 4598,1209 1787,0 3414,-462 4598,-1209 113,-72 222,-146 327,-222 -245,416 -542,797 -882,1136 -1034,1035 -2464,1675 -4044,1675 -1579,0 -3008,-640 -4044,-1675 -340,-339 -636,-720 -882,-1136zm4925 -9522c-1826,0 -3480,741 -4677,1937 -1197,1197 -1937,2850 -1937,4677 0,1826 741,3480 1937,4677 1197,1197 2850,1937 4677,1937 1826,0 3480,-741 4677,-1937 1197,-1197 1937,-2850 1937,-4677 0,-1826 -741,-3480 -1937,-4677 -1197,-1197 -2850,-1937 -4677,-1937z"
       id="path6"
       style="fill:#d1d5db;fill-opacity:1" /></g><text
     x="0"
     y="60015"
     fill="#000000"
     font-size="5px"
     font-weight="bold"
     font-family="'Helvetica Neue', Helvetica, Arial-Unicode, Arial, Sans-serif"
     id="text10">Created by Olena Panasovska</text><text
     x="0"
     y="60020"
     fill="#000000"
     font-size="5px"
     font-weight="bold"
     font-family="'Helvetica Neue', Helvetica, Arial-Unicode, Arial, Sans-serif"
     id="text12">from the Noun Project</text></svg>
